# xmcd CD database file
#
# Track frame offsets:
#	150
#	19987
#	42090
#	73045
#
# Disc length: 1513 seconds
#
# Revision: 0
# Processed by: cddbd v1.5.1PL0 Copyright (c) Steve Scherf et al.
# Submitted via: CDex 1.51
#
DISCID=2f05e704
DTITLE=スイートショップ - 地平線の向こうへ
DYEAR=2000
DGENRE=J-POP
TTITLE0=地平線の向こうへ
TTITLE1=オイルまみれの鳥
TTITLE2=地平線の向こうへ(inst)
TTITLE3=データ
EXTD=YEAR: 2000
EXTT0=
EXTT1=
EXTT2=
EXTT3=
PLAYORDER=
